<svg width="144" height="22" viewBox="0 0 144 22" fill="none" xmlns="http://www.w3.org/2000/svg">
<path d="M70.5516 17.3379L65.2714 3.96277C65.2374 3.8759 65.1538 3.8186 65.0609 3.8186H63.5653C63.4044 3.8186 63.2941 3.98218 63.3548 4.13189L69.6636 19.7989C69.6986 19.8849 69.7813 19.9413 69.8742 19.9413H71.652C71.7448 19.9413 71.8276 19.8849 71.8625 19.7989L78.1714 4.13189C78.232 3.98218 78.1217 3.8186 77.9609 3.8186H76.4652C76.3724 3.8186 76.2887 3.8759 76.2547 3.96277L70.9745 17.3379C70.8982 17.5292 70.6279 17.5292 70.5516 17.3379Z" fill="#646464"/>
<path d="M80.8539 5.71818C81.3953 5.71818 81.8348 5.27643 81.8348 4.73211V4.31809C81.8348 3.77377 81.3953 3.33203 80.8539 3.33203C80.3125 3.33203 79.873 3.77377 79.873 4.31809V4.73211C79.873 5.27643 80.3125 5.71818 80.8539 5.71818Z" fill="#646464"/>
<path d="M80.1752 19.9421H81.5357C81.6617 19.9421 81.7637 19.8395 81.7637 19.7129V7.99384C81.7637 7.86723 81.6617 7.76465 81.5357 7.76465H80.1752C80.0493 7.76465 79.9473 7.86723 79.9473 7.99384V19.7129C79.9464 19.8395 80.0484 19.9421 80.1752 19.9421Z" fill="#646464"/>
<path d="M88.0377 9.85776C88.6996 9.43543 89.4754 9.22472 90.3634 9.22472C91.2193 9.22472 91.9501 9.44375 92.5559 9.88271C93.1194 10.2903 93.5395 10.8115 93.8171 11.4445C93.8548 11.5305 93.9366 11.5878 94.0303 11.5878H95.5131C95.673 11.5878 95.7907 11.4279 95.7365 11.2763C95.3596 10.232 94.7115 9.36981 93.7923 8.68964C92.7829 7.94293 91.5594 7.56958 90.1217 7.56958C88.9101 7.56958 87.8603 7.8496 86.9723 8.40963C86.0843 8.96966 85.393 9.72469 84.9012 10.6747C84.4085 11.6247 84.1621 12.6838 84.1621 13.8528C84.1621 15.0062 84.4085 16.0615 84.9012 17.019C85.3939 17.9773 86.0843 18.736 86.9723 19.2961C87.8603 19.8561 88.9101 20.1361 90.1217 20.1361C91.5594 20.1361 92.782 19.7627 93.7923 19.016C94.7115 18.3359 95.3596 17.4736 95.7365 16.4294C95.7907 16.2778 95.673 16.1179 95.5131 16.1179H94.0303C93.9366 16.1179 93.8548 16.1752 93.8171 16.2612C93.5404 16.8942 93.1203 17.4145 92.5559 17.823C91.9501 18.261 91.2193 18.481 90.3634 18.481C89.4754 18.481 88.6996 18.2703 88.0377 17.8479C87.3749 17.4256 86.8666 16.8619 86.5117 16.1549C86.156 15.4488 85.9786 14.6809 85.9786 13.8528C85.9786 13.0091 86.156 12.2374 86.5117 11.5388C86.8666 10.8401 87.3758 10.2801 88.0377 9.85776Z" fill="#646464"/>
<path d="M100.992 3.40381H99.6304C99.5026 3.40381 99.3996 3.50824 99.3996 3.63577V7.763H97.1594C97.0316 7.763 96.9277 7.86743 96.9277 7.99589V9.13536C96.9277 9.26567 97.0325 9.37102 97.1621 9.37102H99.3987V19.715C99.3987 19.8397 99.4998 19.9414 99.6239 19.9414H100.997C101.118 19.9414 101.216 19.8434 101.216 19.7215V9.37102H103.779C103.902 9.37102 104.002 9.27029 104.002 9.14645V7.99866C104.002 7.86836 103.898 7.763 103.768 7.763H101.216V3.6293C101.216 3.50454 101.116 3.40381 100.992 3.40381Z" fill="#646464"/>
<path d="M123.76 7.94653C123.219 8.19882 122.77 8.50286 122.415 8.85959C122.06 9.21723 121.789 9.57025 121.604 9.91866C121.418 10.268 121.293 10.548 121.229 10.7587V7.98165C121.229 7.86058 121.131 7.76355 121.012 7.76355H119.629C119.509 7.76355 119.412 7.86151 119.412 7.98165V19.7229C119.412 19.844 119.51 19.941 119.629 19.941H121.012C121.132 19.941 121.229 19.8431 121.229 19.7229V14.5828C121.229 13.6901 121.402 12.85 121.75 12.0618C122.097 11.2744 122.597 10.633 123.252 10.1377C123.905 9.64234 124.685 9.39467 125.59 9.39467H125.807V7.56763H125.686C124.943 7.56948 124.302 7.69516 123.76 7.94653Z" fill="#646464"/>
<path d="M128.676 5.71818C129.218 5.71818 129.657 5.27643 129.657 4.73211V4.31809C129.657 3.77377 129.218 3.33203 128.676 3.33203C128.135 3.33203 127.695 3.77377 127.695 4.31809V4.73211C127.695 5.27643 128.135 5.71818 128.676 5.71818Z" fill="#646464"/>
<path d="M127.987 19.9413H129.361C129.484 19.9413 129.583 19.8415 129.583 19.7186V7.98566C129.583 7.86275 129.484 7.76294 129.361 7.76294H127.987C127.865 7.76294 127.766 7.86275 127.766 7.98566V19.7186C127.767 19.8415 127.866 19.9413 127.987 19.9413Z" fill="#646464"/>
<path d="M28.4151 12.1962C28.4151 12.6537 28.7838 13.0243 29.2388 13.0243H34.1035C34.1991 13.0243 34.2782 13.1047 34.2754 13.2008C34.2478 14.2451 33.9785 15.1452 33.4665 15.8984C32.925 16.6941 32.2227 17.3031 31.3586 17.7254C30.4945 18.1477 29.578 18.3585 28.6091 18.3585C27.3166 18.3585 26.2062 18.0701 25.2777 17.4934C24.3483 16.9168 23.6423 16.1377 23.1579 15.1554C22.6735 14.173 22.4308 13.0816 22.4308 11.8793C22.4308 10.6612 22.6771 9.5652 23.1699 8.59115C23.6626 7.6171 24.3768 6.84174 25.3145 6.26507C26.2512 5.68841 27.3653 5.40007 28.6578 5.40007C29.885 5.40007 30.9311 5.65237 31.7952 6.1551C32.538 6.5876 33.1401 7.15225 33.6025 7.84814C33.7514 8.07178 34.007 8.20024 34.2754 8.20024H34.3903C35.0595 8.20024 35.4511 7.43874 35.0641 6.8898C34.5218 6.12091 33.836 5.45737 33.0068 4.90011C31.7392 4.04805 30.2408 3.62109 28.5126 3.62109C26.914 3.62109 25.5204 3.99075 24.3336 4.72914C23.1469 5.46846 22.2295 6.46284 21.5841 7.71229C20.9379 8.96266 20.6152 10.3507 20.6152 11.8774C20.6152 13.4041 20.9305 14.7922 21.5602 16.0425C22.1899 17.2929 23.0899 18.2873 24.2619 19.0266C25.4331 19.7659 26.834 20.1347 28.4657 20.1347C29.1202 20.1347 29.7205 20.0626 30.2757 19.9286L30.2647 19.9369C30.2647 19.9369 35.8777 18.8704 35.9521 13.1047V12.1944C35.9521 11.7369 35.5835 11.3664 35.1285 11.3664H29.2415C28.7838 11.3682 28.4151 11.7388 28.4151 12.1962Z" fill="#646464"/>
<path d="M47.2036 8.40914C46.3073 7.84911 45.2373 7.56909 43.9936 7.56909C42.7664 7.56909 41.7 7.84911 40.7955 8.40914C39.8909 8.96917 39.1969 9.7242 38.7115 10.6742C38.2271 11.6242 37.9844 12.6833 37.9844 13.8524C37.9844 15.0057 38.239 16.0611 38.7474 17.0185C39.2557 17.9768 39.9709 18.7355 40.8911 19.2956C41.8122 19.8556 42.8859 20.1356 44.1131 20.1356C45.5499 20.1356 46.7256 19.7909 47.6384 19.1006C48.4602 18.4796 49.0817 17.6968 49.5045 16.7533C49.5716 16.6035 49.4567 16.4335 49.2931 16.4335H47.7809C47.7 16.4335 47.6265 16.4779 47.586 16.5481C47.268 17.097 46.8377 17.5499 46.2935 17.9066C45.7126 18.2883 44.9928 18.4786 44.137 18.4786C43.3289 18.4786 42.6184 18.304 42.0052 17.9546C41.3911 17.6053 40.903 17.1349 40.539 16.5416C40.2218 16.0241 40.0058 15.4604 39.8918 14.8495C39.8661 14.71 39.9773 14.5806 40.1189 14.5806H49.7711C49.897 14.5806 49.9991 14.478 49.9991 14.3514V13.8505C49.9991 12.6815 49.7564 11.6215 49.2719 10.6724C48.7902 9.7242 48.0999 8.96917 47.2036 8.40914ZM40.1538 12.8783C40.0095 12.8783 39.8973 12.7434 39.9286 12.602C40.1336 11.6843 40.5555 10.908 41.1944 10.2722C41.8967 9.57449 42.8298 9.22516 43.9926 9.22516C45.1555 9.22516 46.0922 9.57449 46.8028 10.2722C47.45 10.909 47.8692 11.6862 48.0613 12.6048C48.0907 12.7452 47.9785 12.8783 47.8351 12.8783H40.1538Z" fill="#646464"/>
<path d="M60.6724 8.40914C59.7761 7.84911 58.7061 7.56909 57.4623 7.56909C56.2351 7.56909 55.1688 7.84911 54.2642 8.40914C53.3597 8.96917 52.6656 9.7242 52.1803 10.6742C51.6958 11.6242 51.4531 12.6833 51.4531 13.8524C51.4531 15.0057 51.6958 16.0611 52.1803 17.0185C52.6647 17.9768 53.3587 18.7355 54.2642 19.2956C55.1688 19.8556 56.2342 20.1356 57.4623 20.1356C58.7061 20.1356 59.7761 19.8556 60.6724 19.2956C61.5686 18.7355 62.259 17.9768 62.7434 17.0185C63.2279 16.0601 63.4706 15.0057 63.4706 13.8524C63.4706 12.6833 63.2279 11.6233 62.7434 10.6742C62.259 9.7242 61.5686 8.96917 60.6724 8.40914ZM61.1688 16.1544C60.8452 16.8605 60.3736 17.4251 59.7513 17.8474C59.1289 18.2698 58.3659 18.4805 57.4614 18.4805C56.5734 18.4805 55.8141 18.2698 55.1844 17.8474C54.5547 17.4251 54.0776 16.8614 53.7549 16.1544C53.4314 15.4484 53.2705 14.6804 53.2705 13.8524C53.2705 13.0086 53.4314 12.237 53.7549 11.5383C54.0776 10.8406 54.5547 10.2805 55.1844 9.8582C55.8141 9.43587 56.5734 9.22516 57.4614 9.22516C58.3659 9.22516 59.1289 9.43679 59.7513 9.8582C60.3727 10.2805 60.8452 10.8406 61.1688 11.5383C61.4914 12.237 61.6532 13.0077 61.6532 13.8524C61.6532 14.6804 61.4914 15.4474 61.1688 16.1544Z" fill="#646464"/>
<path d="M114.213 8.40914C113.317 7.84911 112.247 7.56909 111.003 7.56909C109.776 7.56909 108.71 7.84911 107.805 8.40914C106.901 8.96917 106.207 9.7242 105.721 10.6742C105.237 11.6242 104.994 12.6833 104.994 13.8524C104.994 15.0057 105.237 16.0611 105.721 17.0185C106.206 17.9768 106.9 18.7355 107.805 19.2956C108.71 19.8556 109.775 20.1356 111.003 20.1356C112.247 20.1356 113.317 19.8556 114.213 19.2956C115.11 18.7355 115.8 17.9768 116.284 17.0185C116.769 16.0601 117.012 15.0057 117.012 13.8524C117.012 12.6833 116.769 11.6233 116.284 10.6742C115.8 9.7242 115.11 8.96917 114.213 8.40914ZM114.71 16.1544C114.386 16.8605 113.915 17.4251 113.292 17.8474C112.67 18.2698 111.907 18.4805 111.002 18.4805C110.114 18.4805 109.355 18.2698 108.725 17.8474C108.096 17.4251 107.619 16.8614 107.296 16.1544C106.972 15.4484 106.812 14.6804 106.812 13.8524C106.812 13.0086 106.972 12.237 107.296 11.5383C107.619 10.8406 108.096 10.2805 108.725 9.8582C109.355 9.43587 110.114 9.22516 111.002 9.22516C111.907 9.22516 112.67 9.43679 113.292 9.8582C113.914 10.2805 114.386 10.8406 114.71 11.5383C115.032 12.237 115.194 13.0077 115.194 13.8524C115.194 14.6804 115.032 15.4474 114.71 16.1544Z" fill="#646464"/>
<path d="M142.184 8.00159V9.73621C141.732 9.07083 141.147 8.54314 140.428 8.15315C139.709 7.76316 138.849 7.56909 137.847 7.56909C136.668 7.56909 135.638 7.84911 134.759 8.40914C133.878 8.96917 133.196 9.7242 132.712 10.6742C132.227 11.6242 131.984 12.6833 131.984 13.8524C131.984 15.0057 132.227 16.0611 132.712 17.0185C133.196 17.9768 133.878 18.7355 134.759 19.2956C135.638 19.8556 136.668 20.1356 137.847 20.1356C138.848 20.1356 139.709 19.9406 140.428 19.5516C141.147 19.1616 141.732 18.6422 142.184 17.9925V19.7179C142.184 19.8408 142.284 19.9406 142.406 19.9406H143.776C143.9 19.9406 144.001 19.839 144.001 19.7142V7.99605C144.001 7.86759 143.898 7.76409 143.77 7.76409H142.421C142.29 7.76316 142.184 7.87036 142.184 8.00159ZM141.797 16.1544C141.473 16.8605 141 17.4251 140.379 17.8474C139.757 18.2698 138.994 18.4805 138.089 18.4805C137.201 18.4805 136.434 18.2698 135.787 17.8474C135.141 17.4251 134.648 16.8614 134.309 16.1544C133.97 15.4484 133.801 14.6804 133.801 13.8524C133.801 13.0086 133.971 12.237 134.309 11.5383C134.648 10.8406 135.141 10.2805 135.787 9.8582C136.434 9.43587 137.2 9.22516 138.089 9.22516C138.994 9.22516 139.757 9.43679 140.379 9.8582C141 10.2805 141.473 10.8406 141.797 11.5383C142.119 12.237 142.281 13.0077 142.281 13.8524C142.281 14.6804 142.119 15.4474 141.797 16.1544Z" fill="#646464"/>
<path d="M8.12172 22.0001C8.12172 22.0001 10.099 17.3775 16.2553 10.3983L11.9651 10.3493C11.9651 10.3493 8.84333 14.1282 8.19342 15.6142C7.57844 14.1143 4.54213 10.2643 4.54213 10.2643L0.251953 10.2153C6.25011 17.3331 8.12172 22.0001 8.12172 22.0001Z" fill="#00AFF2"/>
<path d="M0.000567305 8.20981C-0.00127121 8.35213 0.00148583 8.49445 0.00700138 8.63492L4.10321 8.68482C4.09678 8.58501 4.09034 8.4852 4.09126 8.38447C4.11884 6.06764 6.00975 4.21103 8.31433 4.23875C10.6198 4.26648 12.4648 6.16745 12.4372 8.48428C12.4363 8.58594 12.4271 8.68482 12.4188 8.78463L16.515 8.83453C16.5233 8.69314 16.5288 8.55174 16.5307 8.4085C16.5849 3.82011 12.9299 0.0560633 8.36489 0.000614499C7.60099 -0.00862697 6.86006 0.0865599 6.15591 0.273237C2.64987 1.20201 0.0465302 4.38939 0.000567305 8.20981Z" fill="#FFBD00"/>
</svg>
