<svg width="16" height="16" viewBox="0 0 16 16" fill="none" xmlns="http://www.w3.org/2000/svg">
<g clip-path="url(#clip0)">
<path d="M7.94411 7.16752C9.75402 7.16752 11.2212 5.7003 11.2212 3.8904C11.2212 2.0805 9.75402 0.613281 7.94411 0.613281C6.13421 0.613281 4.66699 2.0805 4.66699 3.8904C4.66699 5.7003 6.13421 7.16752 7.94411 7.16752Z" stroke="#636364" stroke-width="1.5" stroke-linecap="round" stroke-linejoin="round"/>
<path d="M4.27124 15.3593C3.65398 15.3593 3.33398 14.8793 3.33398 14.3993V13.3326C3.33398 12.2576 3.67113 11.2266 4.27124 10.4665C4.87136 9.70634 5.68529 9.2793 6.53398 9.2793H9.73398C10.5827 9.2793 11.3966 9.70634 11.9967 10.4665C12.5968 11.2266 12.934 12.2576 12.934 13.3326C12.934 13.3326 12.934 13.7593 12.934 14.3993C12.934 15.0393 12.614 15.3593 11.974 15.3593" stroke="#636364" stroke-width="1.5" stroke-linecap="round" stroke-linejoin="round"/>
<path d="M4.29395 15.3613H11.9739" stroke="#636364" stroke-width="1.5" stroke-linecap="round"/>
</g>
<defs>
<clipPath id="clip0">
<rect width="16" height="16" fill="white"/>
</clipPath>
</defs>
</svg>
